<svg xmlns="http://www.w3.org/2000/svg" xmlns:xlink="http://www.w3.org/1999/xlink" viewBox="0 0 512 512"><defs><style>.a{fill:#1a212d;}.b{fill:#fff;}.c{fill:url(#a);}.d{fill:url(#b);}.e{fill:#dd9b27;}</style><linearGradient id="a" x1="256" y1="354.11" x2="256" y2="426.65" gradientTransform="matrix(1, 0, 0, -1, 0, 513.45)" gradientUnits="userSpaceOnUse"><stop offset="0" stop-color="#a7a9ac"/><stop offset="0.34" stop-color="#fff"/></linearGradient><linearGradient id="b" x1="281.33" y1="274.27" x2="281.33" y2="329.99" xlink:href="#a"/></defs><rect class="a" width="512.32" height="512.97"/><path class="b" d="M458.43,159.34H104.23L53.57,86.68H458.43ZM230.67,183.56H332V425.32H230.67Z"/><polygon class="c" points="104.23 159.34 458.43 159.34 458.43 86.68 53.57 86.68 104.23 159.34"/><polygon class="d" points="230.67 183.56 230.67 238.22 331.99 239.11 331.99 183.56 230.67 183.56"/><ellipse class="e" cx="360.45" cy="383.55" rx="59" ry="57"/><path class="a" d="M360.45,341.77c24.17,0,43.77,18.7,43.77,41.78s-19.6,41.77-43.77,41.77-43.78-18.7-43.78-41.77,19.6-41.78,43.78-41.78m0-30.44c-40.92,0-74.22,32.39-74.22,72.22s33.3,72.21,74.22,72.21,74.22-32.39,74.22-72.21-33.3-72.22-74.22-72.22Z"/></svg>